{
  "title": "Spooks S01",
  "uid": 10823358,
  "size": 2655935872,
  "categoryP": "video",
  "categoryS": "tv_shows",
  "magnet": "?xt=urn:btih:526c57b7e15bf3047b109ef444c24c62ff9631b9&amp;dn=Spooks+S01&amp;tr=udp%3A%2F%2Ftracker.openbittorrent.com%3A80&amp;tr=udp%3A%2F%2Fopen.demonii.com%3A1337&amp;tr=udp%3A%2F%2Ftracker.coppersurfer.tk%3A6969&amp;tr=udp%3A%2F%2Fexodus.desync.com%3A6969",
  "seeders": 39,
  "leechers": 14,
  "uploader": "RedBaron58",
  "files": 6,
  "time": 1408557985,
  "description": "Spooks S01 - Spy Drama x264 mp4 \n(aka MI-5)\n &lt;a href=&quot;\nhttp://www.imdb.com/title/tt0160904/&quot; rel=&quot;nofollow&quot; target=&quot;_NEW&quot;&gt;\nhttp://www.imdb.com/title/tt0160904/&lt;/a&gt;\n\nTrailer:\n\n\nThank you for your kind comments and thumbs ups on my other torrents, your feedback is welcome.\n\n\nAbout the Series:\nThe series follows the work of a group of MI5 officers based at the service's Thames House headquarters, \nin a highly secure suite of offices known as The Grid.\n\n\nI hope you enjoy.\n\n\nTechnical: (All episodes encoded to the same settings)\n\nGeneral\nComplete name                            : H:Spooks S01Spooks S01E01 x264 RB58.mp4\nFormat                                   : MPEG-4\nFormat profile                           : Base Media / Version 2\nCodec ID                                 : mp42\nFile size                                : 424 MiB\nDuration                                 : 59mn 15s\nOverall bit rate mode                    : Variable\nOverall bit rate                         : 1 000 Kbps\nEncoded date                             : UTC 2014-08-06 17:55:21\nTagged date                              : UTC 2014-08-06 18:09:14\nWriting application                      : HandBrake 0.9.8 2012071700\n\nVideo\nID                                       : 1\nFormat                                   : AVC\nFormat/Info                              : Advanced Video Codec\nFormat profile                           : &lt;a class=&quot;__cf_email__&quot; href=&quot;/cdn-cgi/l/email-protection&quot; data-cfemail=&quot;da97bbb3b49a96e9f4ea&quot;&gt;[email&amp;#160;protected]&lt;/a&gt;&lt;script cf-hash='f9e31' type=&quot;text/javascript&quot;&gt;\n/* &lt;![CDATA[ */!function(){try{var t=&quot;currentScript&quot;in document?document.currentScript:function(){for(var t=document.getElementsByTagName(&quot;script&quot;),e=t.length;e--;)if(t[e].getAttribute(&quot;cf-hash&quot;))return t[e]}();if(t&amp;&amp;t.previousSibling){var e,r,n,i,c=t.previousSibling,a=c.getAttribute(&quot;data-cfemail&quot;);if(a){for(e=&quot;&quot;,r=parseInt(a.substr(0,2),16),n=2;a.length-n;n+=2)i=parseInt(a.substr(n,2),16)^r,e+=String.fromCharCode(i);e=document.createTextNode(e),c.parentNode.replaceChild(e,c)}}}catch(u){}}();/* ]]&gt; */&lt;/script&gt;\nFormat settings, CABAC                   : Yes\nFormat settings, ReFrames                : 4 frames\nCodec ID                                 : avc1\nCodec ID/Info                            : Advanced Video Coding\nDuration                                 : 59mn 15s\nBit rate mode                            : Variable\nBit rate                                 : 900 Kbps\nWidth                                    : 718 pixels\nHeight                                   : 576 pixels\nDisplay aspect ratio                     : 16:9\nFrame rate mode                          : Constant\nFrame rate                               : 25.000 fps\nColor space                              : YUV\nChroma subsampling                       : 4:2:0\nBit depth                                : 8 bits\nScan type                                : Progressive\nBits/(Pixel*Frame)                       : 0.087\nStream size                              : 381 MiB (90%)\nWriting library                          : x264 core 120\nEncoding settings                        : cabac=1 / ref=1 / deblock=1:0:0\nEncoded date                             : UTC 2014-08-06 17:55:21\nTagged date                              : UTC 2014-08-06 18:09:14\nColor primaries                          : BT.601 NTSC\nTransfer characteristics                 : BT.709\nMatrix coefficients                      : BT.601\n\nAudio\nID                                       : 2\nFormat                                   : AAC\nFormat/Info                              : Advanced Audio Codec\nFormat profile                           : LC\nCodec ID                                 : 40\nDuration                                 : 59mn 15s\nBit rate mode                            : Variable\nBit rate                                 : 96.0 Kbps\nMaximum bit rate                         : 123 Kbps\nChannel(s)                               : 2 channels\nChannel positions                        : Front: L R\nSampling rate                            : 48.0 KHz\nCompression mode                         : Lossy\nDelay relative to video                  : 80ms\nStream size                              : 40.7 MiB (10%)\nLanguage                                 : English\nEncoded date                             : UTC 2014-08-06 17:55:21\nTagged date                              : UTC 2014-08-06 18:09:13",
  "parsed": {
    "xt": "urn:btih:526c57b7e15bf3047b109ef444c24c62ff9631b9",
    "dn": "Spooks S01",
    "tr": [
      "udp://exodus.desync.com:6969",
      "udp://open.demonii.com:1337",
      "udp://tracker.coppersurfer.tk:6969",
      "udp://tracker.openbittorrent.com:80"
    ],
    "infoHash": "526c57b7e15bf3047b109ef444c24c62ff9631b9",
    "infoHashBuffer": {
      "type": "Buffer",
      "data": [
        82,
        108,
        87,
        183,
        225,
        91,
        243,
        4,
        123,
        16,
        158,
        244,
        68,
        194,
        76,
        98,
        255,
        150,
        49,
        185
      ]
    },
    "name": "Spooks S01",
    "announce": [
      "udp://exodus.desync.com:6969",
      "udp://open.demonii.com:1337",
      "udp://tracker.coppersurfer.tk:6969",
      "udp://tracker.openbittorrent.com:80"
    ],
    "urlList": []
  },
  "previous": 0,
  "peers": 31,
  "last_updated": "2016-12-27T00:18:16.873Z"
}